<?xml version="1.0" encoding="UTF-8" standalone="no"?><!DOCTYPE svg PUBLIC "-//W3C//DTD SVG 1.1//EN" "http://www.w3.org/Graphics/SVG/1.1/DTD/svg11.dtd"><svg width="100%" height="100%" viewBox="0 0 8534 4800" version="1.1" xmlns="http://www.w3.org/2000/svg" xmlns:xlink="http://www.w3.org/1999/xlink" xml:space="preserve" xmlns:serif="http://www.serif.com/" style="fill-rule:evenodd;clip-rule:evenodd;stroke-linejoin:round;stroke-miterlimit:2;"><path d="M2896.64,1773.82c-49.787,-0 -123.245,11.427 -218.739,34.28c-139.57,36.729 -239.961,55.501 -301.992,55.501c-42.442,0 -86.516,-6.529 -133.856,-19.589c-30.199,-7.345 -61.214,-24.485 -92.23,-51.42l-3.264,0c-18.773,15.508 -27.751,39.178 -27.751,71.825l0,5.714c0,39.993 19.589,73.457 58.766,100.391c59.582,32.648 131.407,48.972 216.291,48.972l20.405,0c-7.346,12.243 -11.427,17.956 -12.243,17.956c-30.199,80.803 -45.707,200.784 -45.707,359.125c0,21.221 0.817,62.847 2.449,124.062c-0,3.264 0.816,4.897 0.816,4.897l0,0.816c-12.243,0 -29.383,-1.632 -50.604,-5.713c-27.75,-4.081 -53.052,-15.508 -77.538,-35.097l-2.449,0l-3.265,2.449c-8.978,11.427 -13.875,26.118 -13.875,44.074c0,31.016 15.508,56.318 47.339,75.09c39.178,15.508 73.458,23.67 102.841,23.67l0.816,-0c4.897,124.061 7.346,209.761 7.346,257.917c-0,119.164 -10.611,214.659 -32.648,286.484c-18.773,57.949 -27.751,88.965 -27.751,92.23c9.795,12.242 31.832,17.956 63.663,17.956l8.979,-0c43.258,-0 79.17,-13.059 107.737,-39.994c49.788,-48.971 75.09,-173.849 75.09,-374.632c-0,-63.663 -1.633,-150.18 -4.897,-259.55c62.847,-12.243 115.083,-17.956 155.893,-17.956c31.015,0.816 47.339,0.816 47.339,1.632c27.75,0 68.56,5.714 123.245,17.14l1.632,0c3.265,-0.816 5.714,-8.978 7.346,-24.485c0,-15.508 -4.081,-34.281 -13.059,-56.318c-21.221,-51.42 -64.479,-76.722 -129.775,-76.722l-0.816,0l-4.897,-0.816c-0.816,0.816 -2.449,0.816 -4.081,0.816l-4.081,0c-39.993,0 -101.208,12.243 -182.011,36.729l-0,-116.716c-0,-144.466 12.243,-267.711 36.729,-369.735c104.472,-17.14 186.092,-25.302 244.858,-25.302c97.127,-0 191.805,12.242 284.851,37.544l1.632,0c8.979,-4.081 13.876,-17.956 13.876,-42.442c-0,-35.912 -10.611,-72.641 -31.016,-108.553c-4.897,-13.059 -17.956,-29.383 -39.993,-48.972c-40.81,-28.567 -92.23,-43.258 -153.444,-43.258l-17.957,-0Z" style="fill-rule:nonzero;"/><path d="M3132.52,2510.03c-44.89,0 -87.333,16.324 -128.142,47.339c-94.679,85.701 -142.018,190.99 -142.018,316.683l0,21.221c0,79.987 21.221,150.18 63.663,210.578c47.339,58.766 94.679,87.333 144.466,87.333l22.854,-0c32.648,-0 69.376,-13.059 110.186,-39.993c100.392,-84.068 150.996,-195.071 150.996,-333.007c-0,-26.935 -3.265,-59.582 -9.795,-97.127c-41.625,-142.018 -112.634,-213.027 -212.21,-213.027Zm-107.737,366.471c-0,-31.015 5.713,-66.928 17.956,-106.105c32.648,-75.906 71.009,-113.451 115.083,-113.451l20.405,2.449c62.031,26.934 93.862,85.7 93.862,177.114c0,24.485 -3.265,49.787 -9.794,75.905c-28.567,97.127 -71.009,146.099 -128.142,146.099c-2.449,-1.632 -9.795,-3.265 -22.854,-4.081c-57.95,-31.015 -86.516,-89.781 -86.516,-177.93Z" style="fill-rule:nonzero;"/><path d="M3474.5,2507.58c-8.978,-0 -17.14,5.713 -22.853,16.323c-22.854,177.931 -34.28,309.338 -34.28,392.589c-0,57.95 8.162,106.106 25.302,144.467c41.625,79.17 91.413,118.348 150.995,118.348l26.935,-0c22.037,-0 50.604,-8.978 87.332,-26.935c47.34,-26.934 82.436,-73.457 105.289,-142.017l4.081,-0l2.449,13.875c39.993,109.37 102.84,164.871 190.173,164.871c69.376,0 131.407,-38.361 185.276,-115.083c47.339,-82.436 71.009,-156.709 71.009,-223.637c-1.633,-2.449 -2.449,-6.53 -2.449,-11.427l0,-16.324c-0.816,-4.081 -8.978,-8.162 -22.853,-11.426l-4.898,-0c-6.529,-0 -11.426,3.264 -15.507,8.978c-35.913,186.092 -86.517,279.138 -150.996,279.138l-11.427,-0c-5.713,-0 -8.978,-0.816 -11.426,-2.449c-48.972,-14.691 -73.458,-74.273 -73.458,-177.93l0,-39.177c0,-41.626 6.53,-117.532 18.773,-227.718c-0,-30.199 -8.978,-59.582 -25.302,-88.965c-17.957,-36.729 -55.501,-55.501 -112.635,-55.501c-11.427,-0 -20.405,8.162 -26.934,22.853c-18.773,158.342 -29.383,261.182 -32.648,308.521c-25.302,167.32 -67.744,251.388 -128.142,251.388c-51.421,-0 -77.539,-38.361 -77.539,-114.267c3.265,-70.193 11.427,-176.298 25.302,-319.948c0,-28.567 -7.346,-57.95 -22.853,-86.517c-19.589,-41.626 -58.766,-62.03 -116.716,-62.03Z" style="fill-rule:nonzero;"/><path d="M4255.6,2484.72c-6.529,0 -13.875,4.897 -20.405,13.875c-30.199,162.423 -45.707,279.139 -45.707,350.147c0,64.48 5.714,117.532 16.324,157.526c25.302,99.575 69.377,148.547 132.224,148.547l8.978,-0c25.302,-0 44.074,-3.265 57.133,-11.427c3.265,-77.538 9.795,-148.547 18.773,-212.21c35.096,-196.703 84.884,-295.462 148.547,-295.462l13.875,2.449c8.162,-0 21.221,29.383 38.361,88.965c20.405,38.361 54.685,57.133 103.657,57.133c42.442,-2.448 63.663,-8.978 63.663,-20.405c-8.978,-78.354 -16.324,-131.407 -22.854,-157.525c-26.118,-77.538 -75.905,-116.716 -148.547,-116.716l-2.448,0c-119.981,0 -204.865,142.018 -253.836,425.237l-2.449,0l0,-20.405c0,-36.728 9.794,-125.694 30.199,-267.711c0,-22.854 -4.897,-48.156 -13.875,-75.09c-19.589,-44.891 -58.766,-66.928 -116.716,-66.928l-4.897,0Z" style="fill-rule:nonzero;"/><path d="M5071.79,2496.15c-21.221,2.448 -47.339,8.162 -79.17,18.772c-98.76,51.421 -146.099,113.451 -143.65,187.725c1.632,40.809 22.037,83.252 62.847,126.51c94.678,74.273 142.833,130.591 143.65,168.952l0.816,4.897c-4.897,41.626 -22.854,63.663 -55.501,65.295c-22.854,1.633 -43.259,-7.345 -61.215,-26.934c-10.61,-39.993 -22.853,-58.766 -37.545,-57.134l-9.794,0.817c-29.383,14.691 -43.258,39.993 -42.442,75.906l6.529,29.383c31.016,65.295 90.598,94.678 178.747,86.516c46.523,-4.081 85.7,-16.324 116.715,-35.912c53.869,-46.523 79.987,-102.025 77.539,-168.136c-1.633,-37.545 -20.405,-77.539 -57.134,-119.981c-85.7,-88.148 -128.958,-144.466 -129.775,-168.952c-4.081,-45.706 12.243,-71.008 49.788,-75.089c36.729,-4.081 64.479,8.162 83.252,36.728c13.059,22.038 23.67,31.832 31.015,29.383c33.464,-9.794 48.972,-35.912 47.339,-78.354c0,-6.53 -2.448,-17.14 -6.529,-31.832c-28.567,-53.052 -77.538,-76.722 -147.731,-71.009l-27.751,2.449Z" style="fill-rule:nonzero;"/><path d="M5449.69,2153.35c-18.773,-0 -31.832,3.265 -38.361,11.426c-4.897,9.795 -14.692,74.274 -30.199,194.254c-17.957,0 -61.215,-1.632 -129.775,-4.897c-32.648,0 -53.869,13.876 -62.031,42.442l0,12.243c0,6.53 1.633,13.059 4.897,18.773c0,6.529 58.766,10.61 177.931,13.875c-16.324,168.952 -25.302,296.278 -25.302,383.611c-0,101.208 16.323,181.195 48.155,241.593c44.074,74.274 99.576,111.002 167.32,111.002c70.192,0 133.855,-31.015 190.173,-92.23c59.582,-80.803 97.127,-170.584 112.634,-268.527c6.53,-26.118 0.816,-39.177 -17.14,-39.177l-4.897,-0c-12.243,-0 -21.221,14.691 -27.751,44.074c-45.706,162.422 -108.553,249.755 -189.356,261.182c-74.274,-0 -111.819,-77.538 -111.819,-231.799c0,-71.009 8.162,-205.681 25.302,-404.832l0,-2.448c13.059,-1.633 31.015,-2.449 52.237,-2.449c88.965,-0 133.039,-15.508 133.039,-47.339l0,-11.427c0,-9.794 -4.081,-20.405 -11.427,-31.015c-62.03,6.529 -111.818,9.794 -148.547,9.794l-13.875,0l8.978,-80.803l-0,-4.897c-9.794,-81.62 -35.096,-122.429 -75.09,-122.429l-35.096,-0Z" style="fill-rule:nonzero;"/><path d="M6243.03,2514.11c-6.53,0 -11.427,0.816 -13.059,2.449c-16.324,-0 -26.119,34.28 -30.199,102.84c-46.524,-59.582 -96.311,-88.965 -148.548,-88.965l-16.324,0c-39.177,0 -79.986,17.14 -123.245,52.236c-84.068,81.62 -125.693,179.563 -125.693,293.014l-0,29.383c-0,40.809 8.161,84.884 25.302,130.591c45.706,98.759 106.105,148.547 180.378,148.547l11.427,-0c72.641,-0 136.304,-44.891 192.622,-134.672c2.448,-0 4.081,2.449 4.081,6.53c42.442,89.781 97.127,135.488 164.871,135.488l17.956,-0c54.685,-0 106.921,-26.119 155.893,-78.355c68.56,-88.149 102.84,-178.746 102.84,-269.344l0,-16.324c0,-4.897 -10.61,-9.794 -31.831,-13.875c-7.346,0 -13.876,13.875 -18.773,41.626c-40.81,165.687 -91.414,248.939 -152.628,248.939l-8.978,-0c-6.53,-0 -15.508,-2.449 -25.302,-6.53c-38.361,-22.037 -57.134,-79.987 -57.134,-173.849c0,-39.993 8.162,-128.958 24.486,-267.711c0,-24.486 -4.897,-49.788 -15.508,-78.355c-18.772,-42.442 -56.317,-63.663 -112.634,-63.663Zm-299.543,368.103c-0,-15.507 1.632,-33.464 4.897,-54.685c25.302,-103.656 66.928,-155.893 123.245,-155.893l11.427,2.449c61.214,19.589 91.414,75.906 91.414,169.768l-0,1.633c-0,17.14 -0.817,35.912 -4.081,55.501c-26.119,100.392 -66.928,150.996 -121.613,150.996c-4.897,-0 -12.243,-0.817 -20.405,-2.449c-56.317,-26.934 -84.884,-82.436 -84.884,-167.32Z" style="fill-rule:nonzero;"/><path d="M6708.26,2199.87c-7.346,-0 -15.508,0.816 -24.486,2.448c-17.956,1.633 -31.831,5.714 -42.442,12.243c-37.545,27.751 -57.133,69.377 -57.133,124.878c4.897,107.737 7.345,192.621 7.345,255.468c0,106.922 -4.897,208.946 -14.691,306.889c-10.611,92.23 -23.67,178.746 -39.177,261.182l-0,1.632c8.161,12.243 24.485,17.956 48.155,17.956l5.713,0c39.994,0 75.09,-17.956 103.657,-53.868c23.669,-36.729 35.096,-75.09 35.096,-116.716l0.816,0c169.769,285.668 315.867,428.502 437.48,428.502l7.346,-0c31.831,-0 62.03,-8.979 90.597,-27.751c28.567,-25.302 42.442,-48.155 42.442,-68.56l0,-4.081c0,-1.633 0,-3.265 -0.816,-4.081c-0,-4.081 -10.611,-8.162 -31.832,-12.243c-26.118,-7.346 -53.868,-17.956 -83.251,-31.015c-26.118,-13.06 -53.869,-30.2 -84.068,-50.604c-34.28,-22.854 -76.722,-58.766 -128.143,-108.554c-63.663,-66.112 -106.105,-114.267 -128.958,-144.466c4.081,-0 20.405,-6.53 49.788,-21.221c19.588,-8.978 44.074,-27.751 73.457,-57.134c49.788,-57.133 74.274,-119.98 74.274,-186.908c-0,-56.317 -15.508,-100.392 -47.34,-131.407c-31.015,-25.302 -60.398,-37.545 -88.965,-37.545l-8.162,-0c-10.61,-0 -23.669,3.265 -38.361,8.978c-36.728,17.14 -68.56,53.869 -97.127,110.186c-19.588,49.788 -30.199,80.803 -30.199,93.046l-0.816,0l0,-1.632c8.162,-106.105 13.059,-208.946 13.059,-308.521c0,-102.025 -4.081,-183.644 -12.243,-243.226c-3.265,-8.978 -10.61,-13.875 -21.221,-13.875l-9.794,-0Zm53.869,693.764l-0,-0.816c40.809,-106.105 76.722,-159.974 106.921,-159.974c3.265,-0 5.713,0.816 8.162,1.632c17.14,8.162 26.118,26.119 26.118,53.869l0,2.449c0,30.199 -13.059,56.317 -39.993,79.987c-23.67,18.772 -53.053,27.75 -88.965,27.75l-7.346,0c-2.449,-3.265 -4.081,-4.897 -4.897,-4.897Zm-24.486,-124.878l0.816,0l0,1.633l-0.816,-0l-0,-1.633Z" style="fill-rule:nonzero;"/><path d="M7335.91,2491.25c-28.567,-0 -62.847,11.426 -102.841,35.912c-97.127,88.149 -146.098,200.784 -146.098,339.537c-0,38.361 4.897,79.17 13.875,123.245c42.442,133.856 119.164,201.6 230.983,201.6c69.376,-0 129.774,-21.221 182.011,-62.847c101.208,-89.782 165.687,-196.703 193.437,-319.132l0,-2.448c0,-4.898 -10.61,-9.795 -30.199,-14.692c-1.632,0 -7.345,3.265 -15.507,9.794c-9.795,29.383 -26.119,67.744 -48.972,115.084c-82.435,134.672 -157.525,197.518 -223.637,189.356l-16.324,0c-20.405,0 -40.809,-8.978 -61.214,-26.934c-44.891,-46.523 -66.928,-104.473 -66.928,-174.665l-0,-4.897c39.993,-6.53 70.193,-13.876 89.781,-21.221c118.348,-57.134 177.93,-133.856 177.93,-230.167l0,-4.897c0,-13.059 -1.632,-27.751 -4.081,-44.075c-26.934,-72.641 -74.273,-108.553 -144.466,-108.553l-27.75,-0Zm-91.414,348.514c1.632,-26.118 3.265,-38.361 4.897,-38.361c21.221,-106.921 63.663,-159.974 128.142,-159.974l2.449,0c30.199,4.081 45.707,18.773 45.707,43.259l-0,7.345c-0,29.383 -17.956,62.031 -53.053,97.127c-45.707,29.383 -88.149,46.523 -128.142,50.604Z" style="fill-rule:nonzero;"/><path d="M1227.55,2585.4c101.328,101.465 240.986,266.708 356.005,323.285c3.742,1.972 7.484,3.896 11.248,5.783c74.64,149.402 72.684,297.008 -5.878,371.741c-80.567,76.642 -241.702,76.642 -322.269,-76.642c-80.568,153.284 -241.702,153.284 -322.27,76.642c-80.57,-76.642 -80.57,-229.925 -0,-383.209c49.59,-101.087 182.933,-221.215 283.164,-317.6Zm-328.414,291.489c-149.513,75.209 -297.355,73.404 -372.131,-5.415c-76.53,-80.665 -76.53,-241.996 76.529,-322.661c-153.059,-80.665 -153.059,-241.996 -76.529,-322.662c76.529,-80.668 229.588,-80.668 382.646,-0c106.782,52.525 322.312,289.478 316.925,284.084c-100.885,101.02 -265.172,240.243 -321.422,354.903c-2.057,3.914 -4.061,7.828 -6.018,11.751Zm734.417,-656.954c148.328,-73.824 294.634,-71.634 368.825,6.567c76.329,80.455 76.329,241.363 -76.329,321.817c152.658,80.454 152.658,241.362 76.329,321.817c-76.329,80.457 -228.986,80.457 -381.644,-0c-114.494,-56.319 -253.514,-220.808 -354.388,-321.817c12.176,-12.192 303.985,-200.051 360.209,-314.66c2.402,-4.569 4.732,-9.138 6.998,-13.724Zm-366.467,327.655l-0.43,-0.43c-0.674,0.674 -0.504,0.805 0.43,0.43Zm-329.099,-369.398c-73.871,-148.852 -71.672,-295.649 6.586,-370.093c80.52,-76.597 241.56,-76.597 322.08,76.597c80.52,-153.194 241.56,-153.194 322.081,-76.597c80.523,76.597 80.523,229.79 0,382.984c-56.365,114.895 -334.575,289.808 -322.078,277.295c5.39,5.397 -210.261,-231.689 -317.103,-284.244c-3.859,-2.034 -7.718,-4.016 -11.566,-5.942Z" style="fill:url(#_Linear1);"/><defs><linearGradient id="_Linear1" x1="0" y1="0" x2="1" y2="0" gradientUnits="userSpaceOnUse" gradientTransform="matrix(669.98,-867.7,867.7,669.98,944.74,2886.62)"><stop offset="0" style="stop-color:#008000;stop-opacity:1"/><stop offset="1" style="stop-color:#0f0;stop-opacity:1"/></linearGradient></defs></svg>