<?xml version="1.0" encoding="UTF-8" standalone="no"?>
<!DOCTYPE svg PUBLIC "-//W3C//DTD SVG 1.1//EN" "http://www.w3.org/Graphics/SVG/1.1/DTD/svg11.dtd">
<svg width="100%" height="100%" viewBox="0 0 2048 1152" version="1.1" xmlns="http://www.w3.org/2000/svg" xmlns:xlink="http://www.w3.org/1999/xlink" xml:space="preserve" xmlns:serif="http://www.serif.com/" style="fill-rule:evenodd;clip-rule:evenodd;stroke-linejoin:round;stroke-miterlimit:2;">
    <g transform="matrix(1.39297,0,0,1.39297,25.3019,-134.579)">
        <g transform="matrix(288,0,0,288,345.908,593.241)">
            <path d="M0.469,-0.844C0.439,-0.844 0.395,-0.837 0.338,-0.824C0.254,-0.802 0.194,-0.791 0.157,-0.791C0.132,-0.791 0.105,-0.794 0.077,-0.802C0.059,-0.807 0.041,-0.817 0.022,-0.833L0.02,-0.833C0.009,-0.824 0.003,-0.81 0.003,-0.79L0.003,-0.787C0.003,-0.763 0.015,-0.743 0.039,-0.727C0.074,-0.707 0.117,-0.697 0.168,-0.697L0.18,-0.697C0.176,-0.69 0.173,-0.687 0.173,-0.687C0.155,-0.638 0.146,-0.566 0.146,-0.472C0.146,-0.459 0.146,-0.434 0.147,-0.397C0.147,-0.396 0.147,-0.395 0.147,-0.395L0.147,-0.394C0.14,-0.394 0.13,-0.395 0.117,-0.397C0.101,-0.4 0.085,-0.407 0.071,-0.418L0.069,-0.418L0.067,-0.417C0.062,-0.41 0.059,-0.401 0.059,-0.391C0.059,-0.372 0.068,-0.357 0.087,-0.346C0.111,-0.336 0.131,-0.332 0.149,-0.332L0.149,-0.332C0.152,-0.257 0.154,-0.206 0.154,-0.177C0.154,-0.106 0.147,-0.049 0.134,-0.006C0.123,0.029 0.118,0.047 0.118,0.049C0.124,0.057 0.137,0.06 0.156,0.06L0.161,0.06C0.187,0.06 0.208,0.052 0.226,0.036C0.255,0.007 0.271,-0.068 0.271,-0.188C0.271,-0.226 0.27,-0.278 0.268,-0.343C0.305,-0.351 0.336,-0.354 0.361,-0.354C0.379,-0.354 0.389,-0.354 0.389,-0.353C0.406,-0.353 0.43,-0.35 0.463,-0.343L0.464,-0.343C0.466,-0.343 0.467,-0.348 0.468,-0.357C0.468,-0.367 0.466,-0.378 0.46,-0.391C0.448,-0.422 0.422,-0.437 0.383,-0.437L0.382,-0.437L0.379,-0.438C0.379,-0.437 0.378,-0.437 0.377,-0.437L0.375,-0.437C0.351,-0.437 0.314,-0.43 0.266,-0.415L0.266,-0.485C0.266,-0.571 0.273,-0.645 0.288,-0.706C0.35,-0.716 0.399,-0.721 0.434,-0.721C0.492,-0.721 0.549,-0.714 0.604,-0.699L0.605,-0.699C0.611,-0.701 0.614,-0.709 0.614,-0.724C0.614,-0.746 0.607,-0.768 0.595,-0.789C0.592,-0.797 0.584,-0.807 0.571,-0.818C0.547,-0.835 0.516,-0.844 0.479,-0.844L0.469,-0.844Z" style="fill:white;fill-rule:nonzero;"/>
        </g>
        <g transform="matrix(288,0,0,288,472.611,593.241)">
            <path d="M0.17,-0.404C0.143,-0.404 0.118,-0.394 0.093,-0.375C0.037,-0.324 0.008,-0.261 0.008,-0.186L0.008,-0.173C0.008,-0.125 0.021,-0.083 0.046,-0.047C0.075,-0.012 0.103,0.005 0.133,0.005L0.146,0.005C0.166,0.005 0.188,-0.003 0.212,-0.019C0.272,-0.069 0.303,-0.136 0.303,-0.218C0.303,-0.234 0.301,-0.254 0.297,-0.276C0.272,-0.361 0.229,-0.404 0.17,-0.404ZM0.105,-0.185C0.105,-0.203 0.109,-0.225 0.116,-0.248C0.136,-0.293 0.159,-0.316 0.185,-0.316L0.197,-0.314C0.234,-0.298 0.253,-0.263 0.253,-0.208C0.253,-0.194 0.251,-0.179 0.248,-0.163C0.23,-0.105 0.205,-0.076 0.171,-0.076C0.169,-0.077 0.165,-0.078 0.157,-0.078C0.123,-0.097 0.105,-0.132 0.105,-0.185Z" style="fill:white;fill-rule:nonzero;"/>
        </g>
        <g transform="matrix(288,0,0,288,568.518,593.241)">
            <path d="M0.042,-0.405C0.036,-0.405 0.031,-0.402 0.028,-0.396C0.014,-0.289 0.007,-0.21 0.007,-0.161C0.007,-0.126 0.012,-0.097 0.022,-0.074C0.047,-0.027 0.077,-0.003 0.113,-0.003L0.129,-0.003C0.142,-0.003 0.159,-0.009 0.181,-0.02C0.209,-0.036 0.23,-0.063 0.244,-0.104L0.247,-0.104L0.248,-0.096C0.272,-0.031 0.31,0.002 0.362,0.002C0.403,0.002 0.44,-0.021 0.473,-0.066C0.501,-0.116 0.515,-0.16 0.515,-0.2C0.514,-0.202 0.514,-0.204 0.514,-0.207L0.514,-0.217C0.513,-0.219 0.508,-0.222 0.5,-0.224L0.497,-0.224C0.493,-0.224 0.49,-0.222 0.488,-0.218C0.466,-0.107 0.436,-0.051 0.397,-0.051L0.391,-0.051C0.387,-0.051 0.385,-0.052 0.384,-0.053C0.354,-0.062 0.34,-0.097 0.34,-0.159L0.34,-0.183C0.34,-0.208 0.344,-0.253 0.351,-0.319C0.351,-0.337 0.346,-0.354 0.336,-0.372C0.325,-0.394 0.303,-0.405 0.269,-0.405C0.262,-0.405 0.256,-0.4 0.252,-0.392C0.241,-0.297 0.235,-0.235 0.233,-0.207C0.218,-0.107 0.192,-0.057 0.156,-0.057C0.125,-0.057 0.11,-0.08 0.11,-0.125C0.112,-0.167 0.117,-0.23 0.125,-0.316C0.125,-0.333 0.121,-0.351 0.111,-0.368C0.1,-0.393 0.076,-0.405 0.042,-0.405Z" style="fill:white;fill-rule:nonzero;"/>
        </g>
        <g transform="matrix(288,0,0,288,701.408,593.241)">
            <path d="M0.047,-0.419C0.043,-0.419 0.039,-0.416 0.035,-0.411C0.017,-0.313 0.008,-0.244 0.008,-0.201C0.008,-0.163 0.011,-0.131 0.018,-0.107C0.033,-0.047 0.059,-0.018 0.097,-0.018L0.102,-0.018C0.117,-0.018 0.128,-0.02 0.136,-0.025C0.138,-0.071 0.142,-0.114 0.147,-0.152C0.168,-0.27 0.198,-0.329 0.236,-0.329L0.245,-0.327C0.25,-0.327 0.257,-0.31 0.268,-0.274C0.28,-0.251 0.3,-0.24 0.33,-0.24C0.355,-0.241 0.368,-0.245 0.368,-0.252C0.362,-0.299 0.358,-0.331 0.354,-0.346C0.338,-0.393 0.309,-0.416 0.265,-0.416L0.264,-0.416C0.192,-0.416 0.141,-0.331 0.112,-0.162L0.11,-0.162L0.11,-0.174C0.11,-0.196 0.116,-0.249 0.128,-0.334C0.128,-0.348 0.125,-0.363 0.12,-0.379C0.108,-0.406 0.085,-0.419 0.05,-0.419L0.047,-0.419Z" style="fill:white;fill-rule:nonzero;"/>
        </g>
        <g transform="matrix(288,0,0,288,816.861,593.241)">
            <path d="M0.135,-0.412C0.122,-0.411 0.106,-0.407 0.087,-0.401C0.028,-0.37 0,-0.333 0.001,-0.289C0.002,-0.264 0.015,-0.239 0.039,-0.213C0.096,-0.168 0.125,-0.135 0.125,-0.112L0.125,-0.109C0.123,-0.084 0.112,-0.071 0.092,-0.07C0.079,-0.069 0.066,-0.074 0.056,-0.086C0.049,-0.11 0.042,-0.121 0.033,-0.12L0.027,-0.12C0.01,-0.111 0.001,-0.096 0.002,-0.074L0.006,-0.057C0.024,-0.018 0.06,-0 0.113,-0.005C0.141,-0.007 0.164,-0.015 0.183,-0.026C0.215,-0.054 0.23,-0.087 0.229,-0.127C0.228,-0.149 0.217,-0.173 0.195,-0.199C0.144,-0.251 0.118,-0.285 0.117,-0.3C0.115,-0.327 0.125,-0.342 0.147,-0.345C0.169,-0.347 0.186,-0.34 0.197,-0.323C0.205,-0.31 0.211,-0.304 0.215,-0.305C0.235,-0.311 0.245,-0.327 0.244,-0.352C0.244,-0.356 0.242,-0.362 0.24,-0.371C0.223,-0.403 0.193,-0.417 0.151,-0.414L0.135,-0.412Z" style="fill:white;fill-rule:nonzero;"/>
        </g>
        <g transform="matrix(288,0,0,288,903.205,593.241)">
            <path d="M0.061,-0.617C0.05,-0.617 0.042,-0.615 0.038,-0.61C0.035,-0.604 0.029,-0.566 0.02,-0.494C0.009,-0.494 -0.017,-0.495 -0.058,-0.497C-0.077,-0.497 -0.09,-0.489 -0.095,-0.472L-0.095,-0.464C-0.095,-0.46 -0.094,-0.457 -0.092,-0.453C-0.092,-0.449 -0.057,-0.447 0.015,-0.445C0.005,-0.344 -0,-0.268 -0,-0.215C-0,-0.155 0.009,-0.107 0.028,-0.071C0.055,-0.026 0.088,-0.004 0.128,-0.004C0.17,-0.004 0.208,-0.023 0.242,-0.06C0.278,-0.108 0.3,-0.162 0.31,-0.22C0.313,-0.236 0.31,-0.244 0.299,-0.244L0.296,-0.244C0.289,-0.244 0.284,-0.235 0.28,-0.217C0.252,-0.12 0.215,-0.068 0.167,-0.061C0.122,-0.061 0.1,-0.107 0.1,-0.2C0.1,-0.242 0.104,-0.323 0.115,-0.442L0.115,-0.443C0.123,-0.444 0.133,-0.445 0.146,-0.445C0.199,-0.445 0.226,-0.454 0.226,-0.473L0.226,-0.48C0.226,-0.486 0.223,-0.492 0.219,-0.499C0.182,-0.495 0.152,-0.493 0.13,-0.493L0.122,-0.493L0.127,-0.541L0.127,-0.544C0.121,-0.593 0.106,-0.617 0.082,-0.617L0.061,-0.617Z" style="fill:white;fill-rule:nonzero;"/>
        </g>
        <g transform="matrix(288,0,0,288,977.736,593.241)">
            <path d="M0.277,-0.401C0.273,-0.401 0.27,-0.401 0.269,-0.4C0.259,-0.4 0.253,-0.379 0.251,-0.338C0.223,-0.374 0.193,-0.392 0.162,-0.392L0.152,-0.392C0.129,-0.392 0.104,-0.381 0.079,-0.36C0.028,-0.312 0.003,-0.253 0.003,-0.185L0.003,-0.167C0.003,-0.143 0.008,-0.117 0.019,-0.089C0.046,-0.03 0.082,-0 0.126,-0L0.133,-0C0.177,-0 0.215,-0.027 0.249,-0.081C0.25,-0.081 0.251,-0.08 0.251,-0.077C0.276,-0.023 0.309,0.004 0.35,0.004L0.36,0.004C0.393,0.004 0.424,-0.012 0.454,-0.043C0.495,-0.096 0.515,-0.15 0.515,-0.204L0.515,-0.214C0.515,-0.217 0.509,-0.22 0.496,-0.222C0.492,-0.222 0.488,-0.214 0.485,-0.197C0.46,-0.098 0.43,-0.048 0.394,-0.048L0.388,-0.048C0.384,-0.048 0.379,-0.05 0.373,-0.052C0.35,-0.065 0.339,-0.1 0.339,-0.156C0.339,-0.18 0.344,-0.233 0.354,-0.316C0.354,-0.331 0.351,-0.346 0.344,-0.363C0.333,-0.389 0.311,-0.401 0.277,-0.401ZM0.098,-0.181C0.098,-0.19 0.099,-0.201 0.101,-0.214C0.116,-0.276 0.141,-0.307 0.174,-0.307L0.181,-0.306C0.218,-0.294 0.236,-0.26 0.236,-0.204L0.236,-0.203C0.236,-0.193 0.235,-0.182 0.233,-0.17C0.218,-0.11 0.193,-0.08 0.161,-0.08C0.158,-0.08 0.153,-0.08 0.148,-0.081C0.115,-0.097 0.098,-0.13 0.098,-0.181Z" style="fill:white;fill-rule:nonzero;"/>
        </g>
        <g transform="matrix(288,0,0,288,1105.99,593.241)">
            <path d="M0.11,-0.589C0.105,-0.589 0.101,-0.589 0.095,-0.588C0.084,-0.587 0.076,-0.584 0.07,-0.581C0.047,-0.564 0.036,-0.539 0.036,-0.506C0.039,-0.441 0.04,-0.391 0.04,-0.353C0.04,-0.289 0.037,-0.228 0.031,-0.169C0.025,-0.114 0.017,-0.063 0.008,-0.013L0.008,-0.012C0.013,-0.005 0.022,-0.001 0.037,-0.001L0.04,-0.001C0.064,-0.001 0.085,-0.012 0.102,-0.034C0.116,-0.056 0.123,-0.079 0.123,-0.104L0.124,-0.104C0.225,0.067 0.313,0.153 0.385,0.153L0.39,0.153C0.409,0.153 0.427,0.147 0.444,0.136C0.461,0.121 0.469,0.107 0.469,0.095L0.469,0.093C0.469,0.092 0.469,0.091 0.469,0.09C0.469,0.088 0.462,0.085 0.45,0.083C0.434,0.079 0.417,0.072 0.4,0.064C0.384,0.057 0.368,0.046 0.35,0.034C0.329,0.021 0.304,-0.001 0.273,-0.031C0.235,-0.07 0.209,-0.099 0.196,-0.117C0.198,-0.117 0.208,-0.121 0.226,-0.13C0.237,-0.135 0.252,-0.146 0.27,-0.164C0.299,-0.198 0.314,-0.236 0.314,-0.276C0.314,-0.31 0.305,-0.336 0.286,-0.354C0.267,-0.37 0.25,-0.377 0.232,-0.377L0.228,-0.377C0.221,-0.377 0.213,-0.375 0.205,-0.372C0.183,-0.361 0.164,-0.339 0.146,-0.306C0.135,-0.276 0.128,-0.257 0.128,-0.25L0.128,-0.25L0.128,-0.251C0.133,-0.314 0.136,-0.376 0.136,-0.436C0.136,-0.497 0.133,-0.545 0.128,-0.581C0.126,-0.586 0.122,-0.589 0.116,-0.589L0.11,-0.589ZM0.142,-0.174L0.142,-0.175C0.167,-0.238 0.188,-0.271 0.206,-0.271C0.208,-0.271 0.209,-0.27 0.211,-0.27C0.221,-0.265 0.227,-0.254 0.227,-0.237L0.227,-0.236C0.227,-0.218 0.219,-0.202 0.203,-0.188C0.188,-0.177 0.171,-0.171 0.149,-0.171L0.145,-0.171C0.144,-0.173 0.143,-0.174 0.142,-0.174ZM0.127,-0.249L0.128,-0.249L0.128,-0.248L0.127,-0.248L0.127,-0.249Z" style="fill:white;fill-rule:nonzero;"/>
        </g>
        <g transform="matrix(288,0,0,288,1202.31,593.241)">
            <path d="M0.151,-0.415C0.134,-0.415 0.113,-0.408 0.089,-0.394C0.031,-0.341 0.002,-0.273 0.002,-0.19C0.002,-0.167 0.005,-0.143 0.01,-0.117C0.036,-0.037 0.082,0.004 0.148,0.004C0.19,0.004 0.226,-0.009 0.257,-0.034C0.318,-0.087 0.356,-0.151 0.373,-0.225L0.373,-0.226C0.373,-0.229 0.367,-0.232 0.355,-0.235C0.354,-0.235 0.351,-0.233 0.346,-0.229C0.34,-0.211 0.33,-0.188 0.316,-0.16C0.267,-0.08 0.222,-0.042 0.183,-0.047L0.173,-0.047C0.161,-0.047 0.148,-0.052 0.136,-0.063C0.109,-0.091 0.096,-0.125 0.096,-0.167L0.096,-0.17C0.12,-0.174 0.138,-0.179 0.15,-0.183C0.221,-0.217 0.256,-0.263 0.256,-0.321L0.256,-0.324C0.256,-0.332 0.255,-0.34 0.254,-0.35C0.238,-0.394 0.209,-0.415 0.167,-0.415L0.151,-0.415ZM0.096,-0.207C0.097,-0.222 0.098,-0.229 0.099,-0.229C0.112,-0.293 0.137,-0.325 0.176,-0.325L0.177,-0.325C0.195,-0.323 0.205,-0.314 0.205,-0.299L0.205,-0.295C0.205,-0.277 0.194,-0.258 0.173,-0.237C0.146,-0.219 0.12,-0.209 0.096,-0.207Z" style="fill:white;fill-rule:nonzero;"/>
        </g>
    </g>
    <g transform="matrix(0.424553,0,0,0.424553,-374.714,391.784)">
        <path d="M1576.54,538.714C1633.82,596.072 1712.77,689.484 1777.79,721.467C1779.91,722.582 1782.02,723.669 1784.15,724.736C1826.35,809.193 1825.24,892.635 1780.83,934.882C1735.28,978.207 1644.19,978.207 1598.65,891.556C1553.11,978.207 1462.02,978.207 1416.47,934.882C1370.92,891.556 1370.92,804.905 1416.47,718.253C1444.5,661.109 1519.88,593.2 1576.54,538.714ZM1390.89,703.493C1306.37,746.008 1222.8,744.988 1180.52,700.432C1137.26,654.831 1137.26,563.631 1223.79,518.031C1137.26,472.431 1137.26,381.23 1180.52,335.63C1223.79,290.028 1310.31,290.028 1396.84,335.63C1457.2,365.322 1579.04,499.272 1575.99,496.223C1518.96,553.33 1426.09,632.032 1394.29,696.85C1393.13,699.062 1392,701.275 1390.89,703.493ZM1806.06,332.116C1889.91,290.383 1972.61,291.621 2014.55,335.828C2057.7,381.309 2057.7,472.271 1971.41,517.752C2057.7,563.232 2057.7,654.194 2014.55,699.675C1971.41,745.157 1885.11,745.157 1798.81,699.675C1734.09,667.838 1655.5,574.852 1598.48,517.752C1605.36,510.86 1770.32,404.662 1802.1,339.874C1803.46,337.291 1804.78,334.709 1806.06,332.116ZM1598.89,517.34L1598.65,517.096C1598.27,517.478 1598.37,517.552 1598.89,517.34ZM1412.85,308.519C1371.09,224.373 1372.34,141.388 1416.58,99.304C1462.09,56.004 1553.13,56.004 1598.65,142.605C1644.17,56.004 1735.2,56.004 1780.72,99.304C1826.24,142.605 1826.24,229.205 1780.72,315.806C1748.86,380.756 1591.59,479.635 1598.65,472.561C1601.7,475.612 1479.79,341.587 1419.39,311.878C1417.21,310.728 1415.03,309.607 1412.85,308.519Z" style="fill:url(#_Linear1);"/>
    </g>
    <g transform="matrix(0.463392,0,0,0.463392,415.764,459.077)">
        <g transform="matrix(401.175,0,0,401.175,1108.25,923.851)">
            <path d="M0.072,-0L0.244,-0L0.244,-0.258L0.438,-0.258L0.438,-0L0.61,-0L0.61,-0.65L0.438,-0.65L0.438,-0.408L0.244,-0.408L0.244,-0.65L0.072,-0.65L0.072,-0Z" style="fill:white;fill-rule:nonzero;"/>
        </g>
        <g transform="matrix(401.175,0,0,401.175,1381.85,923.851)">
            <path d="M0.29,0.012C0.346,0.012 0.418,-0.008 0.472,-0.046L0.416,-0.148C0.38,-0.128 0.348,-0.118 0.314,-0.118C0.258,-0.118 0.214,-0.138 0.198,-0.198L0.483,-0.198C0.486,-0.21 0.49,-0.24 0.49,-0.27C0.49,-0.404 0.42,-0.512 0.272,-0.512C0.15,-0.512 0.032,-0.412 0.032,-0.25C0.032,-0.084 0.144,0.012 0.29,0.012ZM0.196,-0.31C0.206,-0.36 0.238,-0.382 0.276,-0.382C0.328,-0.382 0.344,-0.348 0.344,-0.31L0.196,-0.31Z" style="fill:white;fill-rule:nonzero;"/>
        </g>
        <g transform="matrix(401.175,0,0,401.175,1588.86,923.851)">
            <path d="M0.188,0.012C0.242,0.012 0.286,-0.012 0.326,-0.048L0.33,-0.048L0.342,-0L0.482,-0L0.482,-0.278C0.482,-0.442 0.404,-0.512 0.274,-0.512C0.196,-0.512 0.124,-0.488 0.054,-0.446L0.114,-0.334C0.166,-0.362 0.204,-0.376 0.24,-0.376C0.284,-0.376 0.306,-0.36 0.31,-0.324C0.118,-0.304 0.038,-0.246 0.038,-0.142C0.038,-0.06 0.094,0.012 0.188,0.012ZM0.248,-0.12C0.218,-0.12 0.202,-0.133 0.202,-0.156C0.202,-0.184 0.228,-0.21 0.31,-0.222L0.31,-0.154C0.292,-0.134 0.276,-0.12 0.248,-0.12Z" style="fill:white;fill-rule:nonzero;"/>
        </g>
        <g transform="matrix(401.175,0,0,401.175,1803.89,923.851)">
            <path d="M0.212,0.012C0.25,0.012 0.278,0.006 0.296,-0.002L0.276,-0.128C0.268,-0.126 0.264,-0.126 0.258,-0.126C0.246,-0.126 0.23,-0.136 0.23,-0.17L0.23,-0.696L0.058,-0.696L0.058,-0.176C0.058,-0.064 0.096,0.012 0.212,0.012Z" style="fill:white;fill-rule:nonzero;"/>
        </g>
        <g transform="matrix(401.175,0,0,401.175,1923.44,923.851)">
            <path d="M0.264,0.012C0.319,0.012 0.356,0.002 0.382,-0.006L0.356,-0.13C0.344,-0.126 0.328,-0.122 0.312,-0.122C0.28,-0.122 0.252,-0.14 0.252,-0.195L0.252,-0.366L0.366,-0.366L0.366,-0.5L0.252,-0.5L0.252,-0.63L0.11,-0.63L0.09,-0.5L0.014,-0.494L0.014,-0.366L0.08,-0.366L0.08,-0.192C0.08,-0.07 0.134,0.012 0.264,0.012Z" style="fill:white;fill-rule:nonzero;"/>
        </g>
        <g transform="matrix(401.175,0,0,401.175,2083.91,923.851)">
            <path d="M0.058,-0L0.23,-0L0.23,-0.328C0.256,-0.352 0.274,-0.366 0.306,-0.366C0.34,-0.366 0.356,-0.35 0.356,-0.286L0.356,-0L0.528,-0L0.528,-0.308C0.528,-0.432 0.482,-0.512 0.372,-0.512C0.304,-0.512 0.256,-0.478 0.222,-0.448L0.23,-0.534L0.23,-0.696L0.058,-0.696L0.058,-0Z" style="fill:white;fill-rule:nonzero;"/>
        </g>
        <g transform="matrix(401.175,0,0,401.175,2317.39,923.851)">
            <path d="M0.284,0.012C0.336,0.012 0.4,-0.002 0.45,-0.046L0.384,-0.158C0.36,-0.14 0.332,-0.126 0.304,-0.126C0.25,-0.126 0.208,-0.174 0.208,-0.25C0.208,-0.326 0.246,-0.374 0.31,-0.374C0.328,-0.374 0.344,-0.368 0.366,-0.35L0.446,-0.46C0.408,-0.492 0.36,-0.512 0.3,-0.512C0.158,-0.512 0.032,-0.416 0.032,-0.25C0.032,-0.084 0.142,0.012 0.284,0.012Z" style="fill:white;fill-rule:nonzero;"/>
        </g>
        <g transform="matrix(401.175,0,0,401.175,2502.74,923.851)">
            <path d="M0.188,0.012C0.242,0.012 0.286,-0.012 0.326,-0.048L0.33,-0.048L0.342,-0L0.482,-0L0.482,-0.278C0.482,-0.442 0.404,-0.512 0.274,-0.512C0.196,-0.512 0.124,-0.488 0.054,-0.446L0.114,-0.334C0.166,-0.362 0.204,-0.376 0.24,-0.376C0.284,-0.376 0.306,-0.36 0.31,-0.324C0.118,-0.304 0.038,-0.246 0.038,-0.142C0.038,-0.06 0.094,0.012 0.188,0.012ZM0.248,-0.12C0.218,-0.12 0.202,-0.133 0.202,-0.156C0.202,-0.184 0.228,-0.21 0.31,-0.222L0.31,-0.154C0.292,-0.134 0.276,-0.12 0.248,-0.12Z" style="fill:white;fill-rule:nonzero;"/>
        </g>
        <g transform="matrix(401.175,0,0,401.175,2717.77,923.851)">
            <path d="M0.058,-0L0.23,-0L0.23,-0.278C0.254,-0.34 0.298,-0.362 0.334,-0.362C0.356,-0.362 0.372,-0.358 0.39,-0.354L0.418,-0.502C0.404,-0.508 0.387,-0.512 0.356,-0.512C0.307,-0.512 0.251,-0.482 0.214,-0.414L0.21,-0.414L0.198,-0.5L0.058,-0.5L0.058,-0Z" style="fill:white;fill-rule:nonzero;"/>
        </g>
        <g transform="matrix(401.175,0,0,401.175,2881.45,923.851)">
            <path d="M0.29,0.012C0.346,0.012 0.418,-0.008 0.472,-0.046L0.416,-0.148C0.38,-0.128 0.348,-0.118 0.314,-0.118C0.258,-0.118 0.214,-0.138 0.198,-0.198L0.483,-0.198C0.486,-0.21 0.49,-0.24 0.49,-0.27C0.49,-0.404 0.42,-0.512 0.272,-0.512C0.15,-0.512 0.032,-0.412 0.032,-0.25C0.032,-0.084 0.144,0.012 0.29,0.012ZM0.196,-0.31C0.206,-0.36 0.238,-0.382 0.276,-0.382C0.328,-0.382 0.344,-0.348 0.344,-0.31L0.196,-0.31Z" style="fill:white;fill-rule:nonzero;"/>
        </g>
    </g>
    <defs>
        <linearGradient id="_Linear1" x1="0" y1="0" x2="1" y2="0" gradientUnits="userSpaceOnUse" gradientTransform="matrix(378.74,-490.512,490.512,378.74,1416.67,708.993)"><stop offset="0" style="stop-color:rgb(0,128,0);stop-opacity:1"/><stop offset="1" style="stop-color:rgb(0,255,0);stop-opacity:1"/></linearGradient>
    </defs>
</svg>
