<?xml version="1.0" encoding="UTF-8" standalone="no"?><!DOCTYPE svg PUBLIC "-//W3C//DTD SVG 1.1//EN" "http://www.w3.org/Graphics/SVG/1.1/DTD/svg11.dtd"><svg width="100%" height="100%" viewBox="0 0 7231 1683" version="1.1" xmlns="http://www.w3.org/2000/svg" xmlns:xlink="http://www.w3.org/1999/xlink" xml:space="preserve" xmlns:serif="http://www.serif.com/" style="fill-rule:evenodd;clip-rule:evenodd;stroke-linejoin:round;stroke-miterlimit:2;"><path d="M2419.9,16.033c-49.787,0 -123.245,11.427 -218.739,34.28c-139.57,36.729 -239.961,55.501 -301.992,55.501c-42.442,0 -86.516,-6.529 -133.856,-19.588c-30.199,-7.346 -61.214,-24.486 -92.23,-51.42l-3.264,-0c-18.773,15.507 -27.751,39.177 -27.751,71.825l0,5.713c0,39.993 19.589,73.457 58.766,100.392c59.582,32.647 131.407,48.971 216.291,48.971l20.405,0c-7.346,12.243 -11.427,17.957 -12.243,17.957c-30.199,80.803 -45.707,200.783 -45.707,359.125c0,21.221 0.817,62.847 2.449,124.061c-0,3.265 0.816,4.897 0.816,4.897l0,0.816c-12.243,0 -29.383,-1.632 -50.604,-5.713c-27.75,-4.081 -53.052,-15.508 -77.538,-35.096l-2.449,-0l-3.265,2.448c-8.978,11.427 -13.875,26.118 -13.875,44.075c0,31.015 15.508,56.317 47.339,75.09c39.178,15.507 73.458,23.669 102.841,23.669l0.816,0c4.897,124.061 7.346,209.762 7.346,257.917c-0,119.164 -10.611,214.659 -32.648,286.484c-18.773,57.95 -27.751,88.965 -27.751,92.23c9.795,12.243 31.832,17.956 63.663,17.956l8.979,0c43.258,0 79.17,-13.059 107.737,-39.993c49.788,-48.972 75.09,-173.85 75.09,-374.633c-0,-63.663 -1.633,-150.18 -4.897,-259.55c62.847,-12.242 115.083,-17.956 155.893,-17.956c31.015,0.816 47.339,0.816 47.339,1.633c27.75,-0 68.56,5.713 123.245,17.14l1.632,-0c3.265,-0.817 5.714,-8.978 7.346,-24.486c0,-15.508 -4.081,-34.28 -13.059,-56.317c-21.221,-51.421 -64.479,-76.723 -129.775,-76.723l-0.816,0l-4.897,-0.816c-0.816,0.816 -2.449,0.816 -4.081,0.816l-4.081,0c-39.993,0 -101.208,12.243 -182.011,36.729l-0,-116.716c-0,-144.466 12.243,-267.711 36.729,-369.735c104.472,-17.14 186.092,-25.302 244.858,-25.302c97.127,-0 191.805,12.243 284.851,37.545l1.632,-0c8.979,-4.081 13.876,-17.956 13.876,-42.442c-0,-35.913 -10.611,-72.641 -31.016,-108.554c-4.897,-13.059 -17.956,-29.383 -39.993,-48.972c-40.81,-28.566 -92.23,-43.258 -153.444,-43.258l-17.957,0Z" style="fill:#fff;fill-rule:nonzero;"/><path d="M2655.78,752.24c-44.89,-0 -87.332,16.323 -128.142,47.339c-94.679,85.7 -142.018,190.989 -142.018,316.683l0,21.221c0,79.987 21.221,150.179 63.663,210.578c47.339,58.766 94.679,87.332 144.466,87.332l22.854,0c32.648,0 69.376,-13.059 110.186,-39.993c100.392,-84.068 150.996,-195.07 150.996,-333.007c-0,-26.934 -3.265,-59.582 -9.795,-97.127c-41.625,-142.018 -112.634,-213.026 -212.21,-213.026Zm-107.737,366.47c-0,-31.015 5.713,-66.928 17.956,-106.105c32.648,-75.906 71.009,-113.451 115.083,-113.451l20.405,2.449c62.031,26.934 93.862,85.7 93.862,177.114c0,24.486 -3.265,49.788 -9.794,75.906c-28.567,97.127 -71.009,146.098 -128.142,146.098c-2.449,-1.632 -9.795,-3.264 -22.854,-4.081c-57.95,-31.015 -86.516,-89.781 -86.516,-177.93Z" style="fill:#fff;fill-rule:nonzero;"/><path d="M2997.77,749.791c-8.978,-0 -17.14,5.713 -22.853,16.324c-22.854,177.93 -34.28,309.337 -34.28,392.589c-0,57.949 8.162,106.105 25.302,144.466c41.625,79.171 91.413,118.348 150.995,118.348l26.935,-0c22.037,-0 50.604,-8.978 87.332,-26.934c47.34,-26.935 82.436,-73.458 105.289,-142.018l4.081,-0l2.449,13.875c39.993,109.37 102.84,164.871 190.173,164.871c69.376,0 131.407,-38.361 185.276,-115.083c47.339,-82.435 71.009,-156.709 71.009,-223.637c-1.633,-2.448 -2.449,-6.529 -2.449,-11.427l0,-16.323c-0.816,-4.081 -8.978,-8.162 -22.853,-11.427l-4.898,-0c-6.529,-0 -11.426,3.265 -15.507,8.978c-35.913,186.092 -86.517,279.138 -150.996,279.138l-11.427,0c-5.713,0 -8.978,-0.816 -11.426,-2.449c-48.972,-14.691 -73.458,-74.273 -73.458,-177.93l0,-39.177c0,-41.626 6.53,-117.532 18.773,-227.718c-0,-30.199 -8.978,-59.582 -25.302,-88.965c-17.957,-36.729 -55.501,-55.501 -112.635,-55.501c-11.427,-0 -20.405,8.162 -26.934,22.853c-18.773,158.342 -29.383,261.182 -32.648,308.521c-25.302,167.32 -67.744,251.388 -128.142,251.388c-51.421,-0 -77.539,-38.361 -77.539,-114.267c3.265,-70.193 11.427,-176.298 25.302,-319.948c0,-28.567 -7.346,-57.95 -22.853,-86.516c-19.589,-41.626 -58.766,-62.031 -116.716,-62.031Z" style="fill:#fff;fill-rule:nonzero;"/><path d="M3778.86,726.938c-6.529,-0 -13.875,4.897 -20.405,13.875c-30.199,162.422 -45.707,279.138 -45.707,350.147c0,64.479 5.714,117.532 16.324,157.525c25.302,99.576 69.377,148.547 132.224,148.547l8.978,0c25.302,0 44.074,-3.265 57.133,-11.427c3.265,-77.538 9.795,-148.547 18.773,-212.21c35.096,-196.702 84.884,-295.462 148.547,-295.462l13.875,2.449c8.162,-0 21.221,29.383 38.361,88.965c20.405,38.361 54.685,57.133 103.657,57.133c42.442,-2.448 63.663,-8.978 63.663,-20.404c-8.978,-78.355 -16.324,-131.408 -22.853,-157.526c-26.119,-77.538 -75.906,-116.715 -148.548,-116.715l-2.448,-0c-119.981,-0 -204.865,142.017 -253.836,425.236l-2.449,0l0,-20.404c0,-36.729 9.794,-125.694 30.199,-267.712c0,-22.853 -4.897,-48.155 -13.875,-75.09c-19.589,-44.89 -58.766,-66.927 -116.716,-66.927l-4.897,-0Z" style="fill:#fff;fill-rule:nonzero;"/><path d="M4595.06,738.364c-21.221,2.449 -47.339,8.162 -79.17,18.773c-98.76,51.42 -146.099,113.451 -143.65,187.724c1.632,40.81 22.037,83.252 62.847,126.51c94.678,74.274 142.833,130.591 143.65,168.952l0.816,4.897c-4.897,41.626 -22.854,63.663 -55.501,65.296c-22.854,1.632 -43.259,-7.346 -61.215,-26.935c-10.61,-39.993 -22.853,-58.766 -37.545,-57.133l-9.794,0.816c-29.383,14.691 -43.258,39.993 -42.442,75.906l6.529,29.383c31.016,65.295 90.598,94.678 178.747,86.516c46.523,-4.081 85.7,-16.323 116.715,-35.912c53.869,-46.523 79.987,-102.024 77.539,-168.136c-1.633,-37.545 -20.405,-77.538 -57.134,-119.98c-85.7,-88.149 -128.958,-144.467 -129.775,-168.952c-4.081,-45.707 12.243,-71.009 49.788,-75.09c36.729,-4.081 64.48,8.162 83.252,36.729c13.059,22.037 23.67,31.831 31.015,29.383c33.464,-9.795 48.972,-35.913 47.34,-78.355c-0,-6.53 -2.449,-17.14 -6.53,-31.832c-28.567,-53.052 -77.538,-76.722 -147.731,-71.008l-27.751,2.448Z" style="fill:#fff;fill-rule:nonzero;"/><path d="M4972.95,395.563c-18.773,0 -31.832,3.265 -38.361,11.427c-4.897,9.794 -14.692,74.273 -30.199,194.254c-17.957,-0 -61.215,-1.633 -129.775,-4.897c-32.648,-0 -53.869,13.875 -62.031,42.442l0,12.243c0,6.529 1.633,13.059 4.897,18.772c0,6.53 58.766,10.61 177.931,13.875c-16.324,168.952 -25.302,296.278 -25.302,383.611c-0,101.208 16.323,181.195 48.155,241.593c44.074,74.274 99.576,111.003 167.32,111.003c70.192,-0 133.855,-31.016 190.173,-92.23c59.582,-80.803 97.127,-170.585 112.634,-268.528c6.53,-26.118 0.816,-39.177 -17.14,-39.177l-4.897,-0c-12.243,-0 -21.221,14.691 -27.751,44.074c-45.706,162.423 -108.553,249.755 -189.356,261.182c-74.274,0 -111.819,-77.538 -111.819,-231.799c0,-71.009 8.162,-205.68 25.302,-404.832l0,-2.448c13.059,-1.633 31.015,-2.449 52.237,-2.449c88.965,0 133.039,-15.507 133.039,-47.339l0,-11.427c0,-9.794 -4.081,-20.404 -11.427,-31.015c-62.03,6.53 -111.818,9.794 -148.547,9.794l-13.875,0l8.978,-80.803l-0,-4.897c-9.794,-81.619 -35.096,-122.429 -75.09,-122.429l-35.096,0Z" style="fill:#fff;fill-rule:nonzero;"/><path d="M5766.3,756.32c-6.53,0 -11.427,0.817 -13.059,2.449c-16.324,0 -26.119,34.28 -30.199,102.84c-46.524,-59.582 -96.311,-88.965 -148.548,-88.965l-16.324,0c-39.177,0 -79.986,17.14 -123.245,52.237c-84.068,81.619 -125.693,179.562 -125.693,293.013l-0,29.383c-0,40.81 8.161,84.884 25.302,130.591c45.706,98.759 106.105,148.547 180.378,148.547l11.427,0c72.641,0 136.304,-44.89 192.622,-134.672c2.448,0 4.081,2.449 4.081,6.53c42.442,89.781 97.127,135.488 164.871,135.488l17.956,-0c54.685,-0 106.921,-26.118 155.893,-78.355c68.56,-88.149 102.84,-178.746 102.84,-269.343l0,-16.324c0,-4.897 -10.61,-9.795 -31.831,-13.876c-7.346,0 -13.876,13.876 -18.773,41.626c-40.81,165.687 -91.414,248.939 -152.628,248.939l-8.978,0c-6.53,0 -15.508,-2.448 -25.302,-6.529c-38.361,-22.038 -57.134,-79.987 -57.134,-173.85c0,-39.993 8.162,-128.958 24.486,-267.711c0,-24.486 -4.897,-49.788 -15.508,-78.354c-18.772,-42.443 -56.317,-63.664 -112.634,-63.664Zm-299.543,368.104c-0,-15.508 1.632,-33.464 4.897,-54.685c25.302,-103.657 66.928,-155.893 123.245,-155.893l11.427,2.448c61.214,19.589 91.414,75.906 91.414,169.769l-0,1.632c-0,17.14 -0.817,35.912 -4.081,55.501c-26.119,100.392 -66.928,150.996 -121.613,150.996c-4.897,-0 -12.243,-0.816 -20.405,-2.449c-56.317,-26.934 -84.884,-82.435 -84.884,-167.319Z" style="fill:#fff;fill-rule:nonzero;"/><path d="M6231.53,442.086c-7.346,0 -15.508,0.816 -24.486,2.449c-17.956,1.632 -31.831,5.713 -42.442,12.243c-37.545,27.75 -57.133,69.376 -57.133,124.877c4.897,107.738 7.345,192.622 7.345,255.469c0,106.921 -4.897,208.945 -14.691,306.888c-10.611,92.23 -23.67,178.747 -39.177,261.182l-0,1.633c8.161,12.242 24.485,17.956 48.155,17.956l5.713,-0c39.994,-0 75.09,-17.956 103.657,-53.869c23.669,-36.729 35.096,-75.09 35.096,-116.716l0.816,0c169.769,285.668 315.867,428.502 437.48,428.502l7.346,-0c31.831,-0 62.03,-8.978 90.597,-27.751c28.567,-25.302 42.442,-48.155 42.442,-68.56l0,-4.081c0,-1.632 0,-3.265 -0.816,-4.081c-0,-4.081 -10.611,-8.162 -31.832,-12.243c-26.118,-7.346 -53.868,-17.956 -83.251,-31.015c-26.118,-13.059 -53.869,-30.199 -84.068,-50.604c-34.28,-22.854 -76.722,-58.766 -128.143,-108.554c-63.663,-66.111 -106.105,-114.267 -128.958,-144.466c4.081,-0 20.405,-6.53 49.788,-21.221c19.588,-8.978 44.074,-27.751 73.457,-57.134c49.788,-57.133 74.274,-119.98 74.274,-186.908c-0,-56.317 -15.508,-100.392 -47.34,-131.407c-31.015,-25.302 -60.398,-37.545 -88.965,-37.545l-8.162,0c-10.61,0 -23.669,3.265 -38.361,8.978c-36.728,17.14 -68.56,53.869 -97.127,110.186c-19.588,49.788 -30.199,80.803 -30.199,93.046l-0.816,0l0,-1.632c8.162,-106.105 13.059,-208.945 13.059,-308.521c0,-102.024 -4.081,-183.644 -12.243,-243.226c-3.265,-8.978 -10.61,-13.875 -21.221,-13.875l-9.794,0Zm53.869,693.764l-0,-0.816c40.809,-106.105 76.722,-159.974 106.921,-159.974c3.265,0 5.713,0.816 8.162,1.633c17.14,8.162 26.118,26.118 26.118,53.868l0,2.449c0,30.199 -13.059,56.317 -39.993,79.987c-23.67,18.772 -53.053,27.751 -88.965,27.751l-7.346,-0c-2.449,-3.265 -4.081,-4.898 -4.897,-4.898Zm-24.486,-124.877l0.816,-0l0,1.632l-0.816,0l-0,-1.632Z" style="fill:#fff;fill-rule:nonzero;"/><path d="M6859.18,733.467c-28.567,0 -62.847,11.427 -102.841,35.913c-97.127,88.148 -146.098,200.783 -146.098,339.536c-0,38.361 4.897,79.171 13.875,123.245c42.442,133.856 119.164,201.6 230.983,201.6c69.376,-0 129.774,-21.221 182.011,-62.847c101.208,-89.781 165.687,-196.703 193.437,-319.132l0,-2.448c0,-4.897 -10.61,-9.794 -30.199,-14.692c-1.632,0 -7.345,3.265 -15.507,9.795c-9.795,29.383 -26.119,67.744 -48.972,115.083c-82.435,134.672 -157.525,197.519 -223.637,189.357l-16.324,-0c-20.405,-0 -40.809,-8.978 -61.214,-26.935c-44.891,-46.523 -66.928,-104.472 -66.928,-174.665l-0,-4.897c39.993,-6.53 70.193,-13.875 89.781,-21.221c118.348,-57.134 177.93,-133.856 177.93,-230.167l0,-4.897c0,-13.059 -1.632,-27.75 -4.081,-44.074c-26.934,-72.641 -74.273,-108.554 -144.466,-108.554l-27.75,0Zm-91.414,348.515c1.632,-26.119 3.265,-38.361 4.897,-38.361c21.221,-106.922 63.663,-159.974 128.142,-159.974l2.449,-0c30.199,4.081 45.707,18.772 45.707,43.258l-0,7.346c-0,29.383 -17.956,62.03 -53.053,97.127c-45.707,29.383 -88.149,46.523 -128.142,50.604Z" style="fill:#fff;fill-rule:nonzero;"/><path d="M750.814,827.615c101.328,101.464 240.986,266.708 356.005,323.284c3.742,1.973 7.484,3.897 11.248,5.783c74.64,149.402 72.684,297.008 -5.878,371.742c-80.567,76.641 -241.702,76.641 -322.269,-76.642c-80.568,153.283 -241.702,153.283 -322.27,76.642c-80.57,-76.642 -80.57,-229.926 -0,-383.21c49.59,-101.086 182.933,-221.214 283.164,-317.599Zm-328.414,291.489c-149.513,75.208 -297.355,73.403 -372.131,-5.415c-76.53,-80.666 -76.53,-241.997 76.529,-322.662c-153.059,-80.665 -153.059,-241.996 -76.529,-322.662c76.529,-80.668 229.588,-80.668 382.646,0c106.782,52.525 322.312,289.479 316.925,284.084c-100.885,101.021 -265.172,240.243 -321.422,354.904c-2.057,3.913 -4.061,7.827 -6.018,11.751Zm734.417,-656.955c148.328,-73.824 294.634,-71.634 368.825,6.568c76.329,80.454 76.329,241.362 -76.329,321.816c152.658,80.454 152.658,241.362 76.329,321.817c-76.329,80.457 -228.986,80.457 -381.644,0c-114.494,-56.318 -253.514,-220.808 -354.388,-321.817c12.176,-12.192 303.985,-200.051 360.209,-314.659c2.402,-4.569 4.732,-9.138 6.998,-13.725Zm-366.467,327.655l-0.43,-0.43c-0.674,0.675 -0.504,0.806 0.43,0.43Zm-329.099,-369.397c-73.871,-148.852 -71.672,-295.65 6.586,-370.094c80.52,-76.597 241.56,-76.597 322.08,76.597c80.52,-153.194 241.56,-153.194 322.081,-76.597c80.523,76.597 80.523,229.791 0,382.984c-56.365,114.896 -334.575,289.809 -322.078,277.295c5.39,5.398 -210.261,-231.689 -317.103,-284.243c-3.859,-2.034 -7.718,-4.017 -11.566,-5.942Z" style="fill:url(#_Linear1);"/><defs><linearGradient id="_Linear1" x1="0" y1="0" x2="1" y2="0" gradientUnits="userSpaceOnUse" gradientTransform="matrix(669.98,-867.7,867.7,669.98,468.006,1128.83)"><stop offset="0" style="stop-color:#008000;stop-opacity:1"/><stop offset="1" style="stop-color:#0f0;stop-opacity:1"/></linearGradient></defs></svg>