<?xml version="1.0" encoding="UTF-8" standalone="no"?>
<!DOCTYPE svg PUBLIC "-//W3C//DTD SVG 1.1//EN" "http://www.w3.org/Graphics/SVG/1.1/DTD/svg11.dtd">
<svg width="100%" height="100%" viewBox="0 0 379 379" version="1.1" xmlns="http://www.w3.org/2000/svg" xmlns:xlink="http://www.w3.org/1999/xlink" xml:space="preserve" xmlns:serif="http://www.serif.com/" style="fill-rule:evenodd;clip-rule:evenodd;stroke-linejoin:round;stroke-miterlimit:2;">
    <g transform="matrix(1,0,0,1,-114.416,-421.869)">
        <g transform="matrix(0.424553,0,0,0.424553,-374.714,391.784)">
            <path d="M1576.54,538.714C1633.82,596.072 1712.77,689.484 1777.79,721.467C1779.91,722.582 1782.02,723.669 1784.15,724.736C1826.35,809.193 1825.24,892.635 1780.83,934.882C1735.28,978.207 1644.19,978.207 1598.65,891.556C1553.11,978.207 1462.02,978.207 1416.47,934.882C1370.92,891.556 1370.92,804.905 1416.47,718.253C1444.5,661.109 1519.88,593.2 1576.54,538.714ZM1390.89,703.493C1306.37,746.008 1222.8,744.988 1180.52,700.432C1137.26,654.831 1137.26,563.631 1223.79,518.031C1137.26,472.431 1137.26,381.23 1180.52,335.63C1223.79,290.028 1310.31,290.028 1396.84,335.63C1457.2,365.322 1579.04,499.272 1575.99,496.223C1518.96,553.33 1426.09,632.032 1394.29,696.85C1393.13,699.062 1392,701.275 1390.89,703.493ZM1806.06,332.116C1889.91,290.383 1972.61,291.621 2014.55,335.828C2057.7,381.309 2057.7,472.271 1971.41,517.752C2057.7,563.232 2057.7,654.194 2014.55,699.675C1971.41,745.157 1885.11,745.157 1798.81,699.675C1734.09,667.838 1655.5,574.852 1598.48,517.752C1605.36,510.86 1770.32,404.662 1802.1,339.874C1803.46,337.291 1804.78,334.709 1806.06,332.116ZM1598.89,517.34L1598.65,517.096C1598.27,517.478 1598.37,517.552 1598.89,517.34ZM1412.85,308.519C1371.09,224.373 1372.34,141.388 1416.58,99.304C1462.09,56.004 1553.13,56.004 1598.65,142.605C1644.17,56.004 1735.2,56.004 1780.72,99.304C1826.24,142.605 1826.24,229.205 1780.72,315.806C1748.86,380.756 1591.59,479.635 1598.65,472.561C1601.7,475.612 1479.79,341.587 1419.39,311.878C1417.21,310.728 1415.03,309.607 1412.85,308.519Z" style="fill:url(#_Linear1);"/>
        </g>
    </g>
    <defs>
        <linearGradient id="_Linear1" x1="0" y1="0" x2="1" y2="0" gradientUnits="userSpaceOnUse" gradientTransform="matrix(378.74,-490.512,490.512,378.74,1416.67,708.993)"><stop offset="0" style="stop-color:rgb(0,128,0);stop-opacity:1"/><stop offset="1" style="stop-color:rgb(0,255,0);stop-opacity:1"/></linearGradient>
    </defs>
</svg>
