<?xml version="1.0" encoding="UTF-8" standalone="no"?><!DOCTYPE svg PUBLIC "-//W3C//DTD SVG 1.1//EN" "http://www.w3.org/Graphics/SVG/1.1/DTD/svg11.dtd"><svg width="100%" height="100%" viewBox="0 0 7231 1683" version="1.1" xmlns="http://www.w3.org/2000/svg" xmlns:xlink="http://www.w3.org/1999/xlink" xml:space="preserve" xmlns:serif="http://www.serif.com/" style="fill-rule:evenodd;clip-rule:evenodd;stroke-linejoin:round;stroke-miterlimit:2;"><text x="1636.36px" y="1427.23px" style="font-family:'ButterChicken', 'Butter Chicken';font-size:1671.56px;fill:#fff;">F<tspan x="2371.75px 2928.39px 3699.69px 4369.79px 4870.93px 5303.51px 6047.88px 6606.97px " y="1427.23px 1427.23px 1427.23px 1427.23px 1427.23px 1427.23px 1427.23px 1427.23px ">ourstake</tspan></text><path d="M750.814,827.615c101.328,101.464 240.986,266.708 356.005,323.284c3.742,1.973 7.484,3.897 11.248,5.783c74.64,149.402 72.684,297.008 -5.878,371.742c-80.567,76.641 -241.702,76.641 -322.269,-76.642c-80.568,153.283 -241.702,153.283 -322.27,76.642c-80.57,-76.642 -80.57,-229.926 -0,-383.21c49.59,-101.086 182.933,-221.214 283.164,-317.599Zm-328.414,291.489c-149.513,75.208 -297.355,73.403 -372.131,-5.415c-76.53,-80.666 -76.53,-241.997 76.529,-322.662c-153.059,-80.665 -153.059,-241.996 -76.529,-322.662c76.529,-80.668 229.588,-80.668 382.646,0c106.782,52.525 322.312,289.479 316.925,284.084c-100.885,101.021 -265.172,240.243 -321.422,354.904c-2.057,3.913 -4.061,7.827 -6.018,11.751Zm734.417,-656.955c148.328,-73.824 294.634,-71.634 368.825,6.568c76.329,80.454 76.329,241.362 -76.329,321.816c152.658,80.454 152.658,241.362 76.329,321.817c-76.329,80.457 -228.986,80.457 -381.644,0c-114.494,-56.318 -253.514,-220.808 -354.388,-321.817c12.176,-12.192 303.985,-200.051 360.209,-314.659c2.402,-4.569 4.732,-9.138 6.998,-13.725Zm-366.467,327.655l-0.43,-0.43c-0.674,0.675 -0.504,0.806 0.43,0.43Zm-329.099,-369.397c-73.871,-148.852 -71.672,-295.65 6.586,-370.094c80.52,-76.597 241.56,-76.597 322.08,76.597c80.52,-153.194 241.56,-153.194 322.081,-76.597c80.523,76.597 80.523,229.791 0,382.984c-56.365,114.896 -334.575,289.809 -322.078,277.295c5.39,5.398 -210.261,-231.689 -317.103,-284.243c-3.859,-2.034 -7.718,-4.017 -11.566,-5.942Z" style="fill:url(#_Linear1);"/><defs><linearGradient id="_Linear1" x1="0" y1="0" x2="1" y2="0" gradientUnits="userSpaceOnUse" gradientTransform="matrix(669.98,-867.7,867.7,669.98,468.006,1128.83)"><stop offset="0" style="stop-color:#008000;stop-opacity:1"/><stop offset="1" style="stop-color:#0f0;stop-opacity:1"/></linearGradient></defs></svg>